<svg width="32" height="32" viewBox="0 0 32 32" fill="none" xmlns="http://www.w3.org/2000/svg">
<path d="M26.5472 27.0001C25.5582 27.0001 24.7621 26.6984 24.1588 26.0951C23.5555 25.4919 23.2539 24.7204 23.2539 23.7809C23.2539 22.8414 23.5555 22.07 24.1588 21.4667C24.7621 20.8634 25.5582 20.5618 26.5472 20.5618C27.5461 20.5618 28.3422 20.8634 28.9356 21.4667C29.5389 22.07 29.8405 22.8414 29.8405 23.7809C29.8405 24.7204 29.5389 25.4919 28.9356 26.0951C28.3422 26.6984 27.5461 27.0001 26.5472 27.0001Z" fill="#D4FF36"/>
<path d="M6.14497 26.4066V22.1045H11.975C12.9541 22.1045 13.7058 21.8919 14.2299 21.4666C14.7541 21.0314 15.0162 20.4133 15.0162 19.6122V19.5826C15.0162 19.0683 14.8975 18.6331 14.6601 18.2771C14.4228 17.9211 14.0816 17.6491 13.6365 17.4612C13.1915 17.2733 12.6525 17.1793 12.0195 17.1793H6.14497V13.5745H11.7377C12.5388 13.5745 13.1717 13.3816 13.6365 12.9959C14.1112 12.6003 14.3486 12.0861 14.3486 11.4531V11.4235C14.3486 10.7707 14.1261 10.2565 13.681 9.88064C13.236 9.49493 12.6129 9.30208 11.8118 9.30208H6.14497V5H13.5327C14.9964 5 16.2425 5.21263 17.271 5.63789C18.2996 6.06316 19.0858 6.67633 19.6298 7.47741C20.1836 8.26859 20.4605 9.21802 20.4605 10.3257V10.3554C20.4605 11.1268 20.2825 11.8388 19.9265 12.4916C19.5704 13.1344 19.0858 13.6684 18.4727 14.0937C17.8694 14.519 17.1771 14.7811 16.3958 14.88V15.1766C17.3155 15.1964 18.1562 15.4387 18.9177 15.9036C19.6792 16.3585 20.2874 16.9618 20.7424 17.7134C21.1973 18.4551 21.4248 19.271 21.4248 20.1611V20.1908C21.4248 21.4369 21.1132 22.5297 20.4902 23.4693C19.8671 24.3989 18.9919 25.1209 17.8644 25.6352C16.737 26.1494 15.4068 26.4066 13.8739 26.4066H6.14497ZM3 26.4066V5H9.28994V26.4066H3Z" fill="white"/>
</svg>
